<svg width="18" height="22" viewBox="0 0 18 22" fill="none" xmlns="http://www.w3.org/2000/svg">
<path d="M17.138 9.65309C17.138 4.96006 13.3489 1.14009 8.68799 1.14009C4.0271 1.14009 0.237988 4.96006 0.237988 9.65309C0.237988 12.5415 1.88837 15.3841 3.73999 17.4917C4.66842 18.5485 5.65501 19.4293 6.52634 20.0476C6.96187 20.3567 7.37172 20.6024 7.73371 20.7717C8.09099 20.9387 8.4199 21.0401 8.68799 21.0401C8.95607 21.0401 9.28499 20.9387 9.64227 20.7717C10.0043 20.6024 10.4141 20.3567 10.8496 20.0476C11.721 19.4293 12.7076 18.5485 13.636 17.4917C15.4876 15.3841 17.138 12.5415 17.138 9.65309ZM2.13799 9.65309C2.13799 6.00577 5.07821 3.04009 8.68799 3.04009C12.2978 3.04009 15.238 6.00577 15.238 9.65309C15.238 11.9696 13.8702 14.282 12.3338 16.0623C11.5687 16.9489 10.7692 17.6949 10.0931 18.2335C9.75497 18.5029 9.44967 18.7188 9.19672 18.874C8.97002 19.0131 8.79833 19.0953 8.68791 19.1293C8.57754 19.0954 8.4059 19.0133 8.17921 18.8743C7.92628 18.7192 7.62098 18.5034 7.28287 18.2341C6.60679 17.6956 5.80724 16.9496 5.04215 16.063C3.50582 14.2827 2.13799 11.9701 2.13799 9.65309ZM12.139 9.59109C12.139 7.68767 10.5915 6.14009 8.68899 6.14009C6.78649 6.14009 5.23899 7.68767 5.23899 9.59109C5.23899 11.4936 6.78661 13.0401 8.68899 13.0401C10.5914 13.0401 12.139 11.4936 12.139 9.59109ZM7.13899 9.59109C7.13899 8.73547 7.83452 8.04009 8.68899 8.04009C9.54346 8.04009 10.239 8.73547 10.239 9.59109C10.239 10.4455 9.54368 11.1401 8.68899 11.1401C7.8343 11.1401 7.13899 10.4455 7.13899 9.59109Z" fill="#812FBF" stroke="#812FBF" stroke-width="0.4"/>
</svg>
