<svg width="20" height="20" viewBox="0 0 20 20" fill="none" xmlns="http://www.w3.org/2000/svg">
<path d="M8.99263 2.62622C9.08555 2.43802 9.22926 2.27957 9.40752 2.16878C9.58579 2.05798 9.79149 1.99927 10.0014 1.99927C10.2113 1.99927 10.417 2.05798 10.5952 2.16878C10.7735 2.27957 10.9172 2.43802 11.0101 2.62622L12.9114 6.47872L17.1626 7.09747C17.3705 7.12745 17.5657 7.21499 17.7264 7.35019C17.8871 7.4854 18.0067 7.66287 18.0717 7.86252C18.1367 8.06218 18.1446 8.27605 18.0944 8.47994C18.0442 8.68382 17.9379 8.86959 17.7876 9.01622L14.7101 12.015L15.4364 16.2487C15.472 16.4557 15.4489 16.6684 15.3698 16.863C15.2908 17.0575 15.1588 17.226 14.989 17.3494C14.8191 17.4729 14.6181 17.5463 14.4086 17.5614C14.1992 17.5765 13.9897 17.5327 13.8039 17.435L10.0014 15.435L6.19888 17.435C6.01304 17.5327 5.80356 17.5765 5.59412 17.5614C5.38469 17.5463 5.18366 17.4729 5.01379 17.3494C4.84392 17.226 4.71199 17.0575 4.63292 16.863C4.55385 16.6684 4.5308 16.4557 4.56638 16.2487L5.29138 12.015L2.21638 9.01497C2.06647 8.86838 1.96051 8.6828 1.91045 8.47919C1.8604 8.27557 1.86825 8.06202 1.93311 7.86263C1.99797 7.66323 2.11726 7.48594 2.27753 7.35074C2.4378 7.21554 2.63266 7.12782 2.84013 7.09747L7.09013 6.47872L8.99263 2.62622ZM10.0001 3.40747L8.18263 7.09122C8.10193 7.25461 7.98275 7.39594 7.83534 7.50307C7.68792 7.6102 7.5167 7.67992 7.33638 7.70622L3.27013 8.29747L6.21263 11.165C6.34313 11.2924 6.44068 11.4497 6.49686 11.6233C6.55304 11.7968 6.56618 11.9815 6.53513 12.1612L5.84138 16.2112L9.47888 14.2987C9.64023 14.214 9.81975 14.1697 10.002 14.1697C10.1843 14.1697 10.3638 14.214 10.5251 14.2987L14.1626 16.2112L13.4676 12.1612C13.4366 11.9815 13.4497 11.7968 13.5059 11.6233C13.5621 11.4497 13.6596 11.2924 13.7901 11.165L16.7326 8.29747L12.6664 7.70622C12.4861 7.67992 12.3148 7.6102 12.1674 7.50307C12.02 7.39594 11.9008 7.25461 11.8201 7.09122L10.0001 3.40747Z" fill="#FFCC00"/>
</svg>
